# This file uses centimeters as units for non-parametric coordinates.

mtllib rock2.mtl
g default
v -20.542317 -0.235800 -2.511987
v -17.868715 0.840550 11.256214
v -12.757867 5.685150 18.305563
v -17.138063 10.601950 -1.106487
v -16.849666 13.861500 13.235164
v -9.302416 15.359800 18.867563
v -16.514217 19.243050 -1.894737
v -15.171062 23.779801 11.394513
v -9.054765 24.908650 19.321913
v -6.990566 22.014000 -6.745837
v -2.841964 26.969150 5.478414
v 6.733385 25.927851 14.369063
v 0.949586 20.743600 -11.684037
v 9.402735 28.713050 -2.551937
v 14.085436 27.466950 5.852013
v 4.301385 10.578900 -13.749937
v 14.306784 15.734650 -7.163937
v 17.299486 18.272950 8.327014
v 1.124934 7.766850 -18.389137
v 18.250685 1.607800 -9.815787
v 20.511585 -1.059300 8.919014
v -5.973014 0.939750 -12.534386
v 0.983185 -0.096350 -0.258337
v 4.325635 0.815600 16.747713
v 5.599234 16.063949 15.882313
v -7.763114 6.790100 -9.239337
v -1.224166 21.481800 -10.829986
v 0.455386 9.606200 -12.258537
v -0.285264 5.903600 -18.423237
v 14.025185 1.328200 -6.766987
v 16.646885 -0.612000 10.797014
v 14.493785 17.722900 10.172713
v 11.827985 27.519199 8.273013
v 6.680585 27.679601 -1.312687
v -14.750116 21.216699 -2.729237
v -14.259767 10.323750 -3.179987
v -17.557263 -0.364600 -4.780687
v -14.175867 -0.057750 9.321064
v -10.987412 4.179350 18.672464
v -7.168966 15.479501 18.667913
v -4.793414 28.505099 17.363663
v -12.707418 24.371199 9.926313
v 0.422085 22.836649 -8.575187
v -6.414616 23.625900 -3.979037
v -14.017563 22.646099 -0.159937
v -16.160416 21.511801 0.937063
v -17.258465 11.376250 2.339663
v -19.804114 -0.227900 0.360813
v -16.592812 -0.361150 -2.107437
v -4.344314 0.637100 -10.433437
v 6.124935 2.073800 -17.840586
v 6.240234 6.349350 -19.638286
v 8.097536 11.164100 -12.763487
v 2.553684 22.758900 -9.704587
v -6.586316 27.778849 15.475914
v -11.641663 24.138451 16.203164
v -11.609566 15.041400 18.132113
v -15.666663 4.242300 15.913813
v -12.112963 1.627350 17.317513
v 3.362534 0.708150 13.756414
v 16.023185 -0.282100 7.315813
v 19.973435 -0.593150 5.225364
v 17.133836 17.647500 5.274813
v 13.240985 27.793500 4.107263
v 10.671786 28.350249 6.472613
v 3.625584 28.858900 13.489564
vt 0.401959 0.000000
vt 0.500000 0.000000
vt 0.401959 0.125000
vt 0.500000 0.125000
vt 0.600374 0.000000
vt 0.625000 0.000000
vt 0.600374 0.125000
vt 0.625000 0.125000
vt 0.401959 0.250000
vt 0.500000 0.250000
vt 0.625000 0.250000
vt 0.600374 0.250000
vt 0.401959 0.273831
vt 0.500000 0.273831
vt 0.600374 0.273831
vt 0.625000 0.273831
vt 0.401959 0.375000
vt 0.500000 0.375000
vt 0.401959 0.470013
vt 0.500000 0.470013
vt 0.600374 0.375000
vt 0.625000 0.375000
vt 0.600374 0.470013
vt 0.625000 0.470013
vt 0.500000 0.500000
vt 0.500000 0.625000
vt 0.401959 0.500000
vt 0.401959 0.625000
vt 0.600374 0.500000
vt 0.625000 0.500000
vt 0.600374 0.625000
vt 0.625000 0.625000
vt 0.500000 0.750000
vt 0.401959 0.750000
vt 0.600374 0.750000
vt 0.625000 0.750000
vt 0.401959 0.779987
vt 0.500000 0.779987
vt 0.401959 0.875000
vt 0.500000 0.875000
vt 0.600374 0.779987
vt 0.625000 0.779987
vt 0.600374 0.875000
vt 0.625000 0.875000
vt 0.401959 0.976169
vt 0.500000 0.976169
vt 0.401959 1.000000
vt 0.500000 1.000000
vt 0.625000 0.976169
vt 0.625000 1.000000
vt 0.600374 0.976169
vt 0.600374 1.000000
vt 0.750000 0.000000
vt 0.845013 0.000000
vt 0.750000 0.125000
vt 0.845013 0.125000
vt 0.648831 0.000000
vt 0.648831 0.125000
vt 0.750000 0.250000
vt 0.845013 0.250000
vt 0.648831 0.250000
vt 0.154987 0.000000
vt 0.250000 0.000000
vt 0.154987 0.125000
vt 0.250000 0.125000
vt 0.351169 0.000000
vt 0.375000 0.000000
vt 0.351169 0.125000
vt 0.375000 0.125000
vt 0.154987 0.250000
vt 0.250000 0.250000
vt 0.375000 0.250000
vt 0.351169 0.250000
vt 0.125000 0.125000
vt 0.125000 0.250000
vt 0.125000 0.000000
vt 0.875000 0.125000
vt 0.875000 0.000000
vt 0.875000 0.250000
vt 0.375000 0.375000
vt 0.375000 0.470013
vt 0.375000 0.273831
vt 0.375000 0.976169
vt 0.375000 1.000000
vt 0.375000 0.875000
vt 0.375000 0.779987
vt 0.375000 0.750000
vt 0.375000 0.625000
vt 0.375000 0.500000
vn -0.965164 0.206210 0.161044
vn -0.982595 0.113272 0.147227
vn -0.991773 0.123968 0.031898
vn -0.991773 0.123968 0.031898
vn -0.982595 0.113272 0.147227
vn -0.947658 0.124972 0.293814
vn -0.829483 0.048153 0.556452
vn -0.638884 0.092572 0.763713
vn -0.615120 0.105825 0.781300
vn -0.615120 0.105825 0.781300
vn -0.638884 0.092572 0.763713
vn -0.303443 -0.002201 0.952847
vn -0.991773 0.123968 0.031898
vn -0.947658 0.124972 0.293814
vn -0.990157 0.136197 0.032227
vn -0.990157 0.136197 0.032227
vn -0.947658 0.124972 0.293814
vn -0.946142 0.206415 0.249417
vn -0.303443 -0.002201 0.952847
vn -0.738935 0.111190 0.664539
vn -0.615120 0.105825 0.781300
vn -0.615120 0.105825 0.781300
vn -0.738935 0.111190 0.664539
vn -0.763627 0.174886 0.621521
vn -0.554927 0.813299 -0.174931
vn -0.279901 0.959111 -0.041960
vn -0.277271 0.941702 -0.190573
vn -0.277271 0.941702 -0.190573
vn -0.279901 0.959111 -0.041960
vn -0.324952 0.936064 -0.134872
vn -0.532763 0.832397 0.152577
vn -0.545643 0.800689 0.247328
vn -0.311969 0.945750 -0.090732
vn -0.311969 0.945750 -0.090732
vn -0.545643 0.800689 0.247328
vn -0.198054 0.979960 0.021282
vn -0.207502 0.936715 -0.281972
vn -0.226576 0.954125 -0.195729
vn -0.215107 0.906768 -0.362630
vn -0.215107 0.906768 -0.362630
vn -0.226576 0.954125 -0.195729
vn -0.243502 0.951696 -0.187034
vn 0.061458 0.991397 0.115561
vn 0.462303 0.690156 0.556741
vn 0.001122 0.999726 -0.023381
vn 0.001122 0.999726 -0.023381
vn 0.462303 0.690156 0.556741
vn 0.162807 0.931451 0.325412
vn 0.713501 0.433026 -0.550821
vn 0.809559 0.345175 -0.474836
vn 0.432349 0.432169 -0.791394
vn 0.432349 0.432169 -0.791394
vn 0.809559 0.345175 -0.474836
vn 0.497076 0.437739 -0.749199
vn 0.853581 0.276712 -0.441396
vn 0.899997 0.298094 -0.318035
vn 0.942714 0.240214 -0.231488
vn 0.942714 0.240214 -0.231488
vn 0.899997 0.298094 -0.318035
vn 0.973118 0.207763 -0.099382
vn 0.809559 0.345175 -0.474836
vn 0.899981 0.337481 -0.275938
vn 0.497076 0.437739 -0.749199
vn 0.497076 0.437739 -0.749199
vn 0.899981 0.337481 -0.275938
vn 0.521896 0.630269 -0.574793
vn 0.942714 0.240214 -0.231488
vn 0.973118 0.207763 -0.099382
vn 0.968634 0.204290 -0.141473
vn 0.968634 0.204290 -0.141473
vn 0.973118 0.207763 -0.099382
vn 0.979627 0.159012 -0.122667
vn 0.127924 -0.885043 -0.447588
vn 0.027856 -0.993372 -0.111521
vn 0.038803 -0.993772 -0.104460
vn 0.038803 -0.993772 -0.104460
vn 0.027856 -0.993372 -0.111521
vn 0.025109 -0.999282 -0.028385
vn -0.036714 -0.998203 -0.047363
vn -0.117946 -0.991221 -0.059742
vn -0.019096 -0.997436 0.068965
vn -0.019096 -0.997436 0.068965
vn -0.117946 -0.991221 -0.059742
vn -0.062641 -0.991231 0.116353
vn 0.016389 -0.999837 -0.007532
vn -0.013736 -0.995535 0.093390
vn -0.046763 -0.997905 0.044705
vn -0.046763 -0.997905 0.044705
vn -0.013736 -0.995535 0.093390
vn -0.216546 -0.944502 0.247030
vn -0.049377 -0.451283 0.891014
vn -0.498699 -0.279075 0.820620
vn -0.088016 -0.899578 0.427799
vn -0.088016 -0.899578 0.427799
vn -0.498699 -0.279075 0.820620
vn -0.588653 -0.433815 0.682123
vn 0.316800 0.009244 0.948447
vn 0.464739 0.062424 0.883245
vn 0.359383 0.060762 0.931210
vn 0.359383 0.060762 0.931210
vn 0.464739 0.062424 0.883245
vn 0.546815 0.134612 0.826361
vn -0.193108 0.011980 0.981104
vn 0.092256 -0.034950 0.995122
vn 0.078735 -0.036394 0.996231
vn 0.078735 -0.036394 0.996231
vn 0.092256 -0.034950 0.995122
vn 0.181566 0.016619 0.983238
vn 0.359383 0.060762 0.931210
vn 0.546815 0.134612 0.826361
vn 0.442258 0.149882 0.884276
vn 0.442258 0.149882 0.884276
vn 0.546815 0.134612 0.826361
vn 0.689992 0.314212 0.652059
vn 0.078735 -0.036394 0.996231
vn 0.181566 0.016619 0.983238
vn 0.392931 0.014809 0.919449
vn 0.392931 0.014809 0.919449
vn 0.181566 0.016619 0.983238
vn 0.256619 0.070665 0.963926
vn -0.731648 0.628591 -0.263750
vn -0.591272 0.378273 -0.712254
vn -0.486926 0.289028 -0.824237
vn -0.486926 0.289028 -0.824237
vn -0.591272 0.378273 -0.712254
vn -0.515966 0.208181 -0.830927
vn -0.564590 0.286197 -0.774164
vn -0.565795 0.287746 -0.772708
vn -0.622519 0.131348 -0.771504
vn -0.622519 0.131348 -0.771504
vn -0.565795 0.287746 -0.772708
vn -0.568404 0.149404 -0.809071
vn -0.486926 0.289028 -0.824237
vn -0.515966 0.208181 -0.830927
vn -0.480833 0.121361 -0.868372
vn -0.480833 0.121361 -0.868372
vn -0.515966 0.208181 -0.830927
vn -0.508146 0.164261 -0.845462
vn -0.568404 0.149404 -0.809071
vn -0.473816 0.007128 -0.880595
vn -0.622519 0.131348 -0.771504
vn -0.622519 0.131348 -0.771504
vn -0.473816 0.007128 -0.880595
vn -0.518319 0.116153 -0.847262
vn -0.430465 0.362731 -0.826514
vn -0.486926 0.289028 -0.824237
vn -0.353840 0.063834 -0.933125
vn -0.353840 0.063834 -0.933125
vn -0.486926 0.289028 -0.824237
vn -0.480833 0.121361 -0.868372
vn -0.785992 0.591579 0.179584
vn -0.731648 0.628591 -0.263750
vn -0.430465 0.362731 -0.826514
vn -0.430465 0.362731 -0.826514
vn -0.731648 0.628591 -0.263750
vn -0.486926 0.289028 -0.824237
vn 0.260338 -0.362792 -0.894766
vn 0.046384 -0.981221 -0.187226
vn 0.127924 -0.885043 -0.447588
vn 0.127924 -0.885043 -0.447588
vn 0.046384 -0.981221 -0.187226
vn 0.027856 -0.993372 -0.111521
vn -0.113038 -0.988122 -0.104105
vn -0.138755 -0.986262 -0.089636
vn -0.036714 -0.998203 -0.047363
vn -0.036714 -0.998203 -0.047363
vn -0.138755 -0.986262 -0.089636
vn -0.117946 -0.991221 -0.059742
vn 0.546815 0.134612 0.826361
vn 0.464739 0.062424 0.883245
vn 0.501735 0.194751 0.842813
vn 0.501735 0.194751 0.842813
vn 0.464739 0.062424 0.883245
vn 0.444272 0.101076 0.890172
vn 0.689992 0.314212 0.652059
vn 0.546815 0.134612 0.826361
vn 0.654334 0.329280 0.680751
vn 0.654334 0.329280 0.680751
vn 0.546815 0.134612 0.826361
vn 0.501735 0.194751 0.842813
vn 0.162807 0.931451 0.325412
vn 0.269877 0.954650 0.125737
vn 0.001122 0.999726 -0.023381
vn 0.001122 0.999726 -0.023381
vn 0.269877 0.954650 0.125737
vn 0.067880 0.996648 -0.045668
vn -0.215107 0.906768 -0.362630
vn -0.243502 0.951696 -0.187034
vn -0.248811 0.866381 -0.432986
vn -0.248811 0.866381 -0.432986
vn -0.243502 0.951696 -0.187034
vn -0.353478 0.935436 0.003656
vn -0.622519 0.131348 -0.771504
vn -0.518319 0.116153 -0.847262
vn -0.515966 0.208181 -0.830927
vn -0.515966 0.208181 -0.830927
vn -0.518319 0.116153 -0.847262
vn -0.508146 0.164261 -0.845462
vn -0.591272 0.378273 -0.712254
vn -0.564590 0.286197 -0.774164
vn -0.515966 0.208181 -0.830927
vn -0.515966 0.208181 -0.830927
vn -0.564590 0.286197 -0.774164
vn -0.622519 0.131348 -0.771504
vn 0.038803 -0.993772 -0.104460
vn 0.025109 -0.999282 -0.028385
vn 0.016389 -0.999837 -0.007532
vn 0.016389 -0.999837 -0.007532
vn 0.025109 -0.999282 -0.028385
vn -0.013736 -0.995535 0.093390
vn -0.019096 -0.997436 0.068965
vn -0.062641 -0.991231 0.116353
vn -0.088016 -0.899578 0.427799
vn -0.088016 -0.899578 0.427799
vn -0.062641 -0.991231 0.116353
vn -0.049377 -0.451283 0.891014
vn 0.092256 -0.034950 0.995122
vn 0.316800 0.009244 0.948447
vn 0.181566 0.016619 0.983238
vn 0.181566 0.016619 0.983238
vn 0.316800 0.009244 0.948447
vn 0.359383 0.060762 0.931210
vn 0.181566 0.016619 0.983238
vn 0.359383 0.060762 0.931210
vn 0.256619 0.070665 0.963926
vn 0.256619 0.070665 0.963926
vn 0.359383 0.060762 0.931210
vn 0.442258 0.149882 0.884276
vn -0.311969 0.945750 -0.090732
vn -0.198054 0.979960 0.021282
vn 0.061458 0.991397 0.115561
vn 0.061458 0.991397 0.115561
vn -0.198054 0.979960 0.021282
vn 0.462303 0.690156 0.556741
vn -0.277271 0.941702 -0.190573
vn -0.324952 0.936064 -0.134872
vn -0.207502 0.936715 -0.281972
vn -0.207502 0.936715 -0.281972
vn -0.324952 0.936064 -0.134872
vn -0.226576 0.954125 -0.195729
vn -0.207502 0.936715 -0.281972
vn -0.215107 0.906768 -0.362630
vn -0.255696 0.862957 -0.435803
vn -0.255696 0.862957 -0.435803
vn -0.215107 0.906768 -0.362630
vn -0.132825 0.889388 -0.437432
vn -0.413635 0.824380 -0.386399
vn -0.277271 0.941702 -0.190573
vn -0.255696 0.862957 -0.435803
vn -0.255696 0.862957 -0.435803
vn -0.277271 0.941702 -0.190573
vn -0.207502 0.936715 -0.281972
vn -0.768098 0.543132 -0.339167
vn -0.554927 0.813299 -0.174931
vn -0.413635 0.824380 -0.386399
vn -0.413635 0.824380 -0.386399
vn -0.554927 0.813299 -0.174931
vn -0.277271 0.941702 -0.190573
vn -0.984016 0.171410 -0.048287
vn -0.991773 0.123968 0.031898
vn -0.994355 0.104369 0.019135
vn -0.994355 0.104369 0.019135
vn -0.991773 0.123968 0.031898
vn -0.990157 0.136197 0.032227
vn -0.934728 0.262556 0.239473
vn -0.965164 0.206210 0.161044
vn -0.984016 0.171410 -0.048287
vn -0.984016 0.171410 -0.048287
vn -0.965164 0.206210 0.161044
vn -0.991773 0.123968 0.031898
vn 0.046809 -0.998524 -0.027554
vn 0.016389 -0.999837 -0.007532
vn -0.032941 -0.999386 0.011925
vn -0.032941 -0.999386 0.011925
vn 0.016389 -0.999837 -0.007532
vn -0.046763 -0.997905 0.044705
vn -0.071056 -0.935593 -0.345857
vn 0.038803 -0.993772 -0.104460
vn 0.046809 -0.998524 -0.027554
vn 0.046809 -0.998524 -0.027554
vn 0.038803 -0.993772 -0.104460
vn 0.016389 -0.999837 -0.007532
vn -0.261905 -0.518876 -0.813741
vn 0.127924 -0.885043 -0.447588
vn -0.071056 -0.935593 -0.345857
vn -0.071056 -0.935593 -0.345857
vn 0.127924 -0.885043 -0.447588
vn 0.038803 -0.993772 -0.104460
vn -0.191342 0.162529 -0.967973
vn 0.260338 -0.362792 -0.894766
vn -0.261905 -0.518876 -0.813741
vn -0.261905 -0.518876 -0.813741
vn 0.260338 -0.362792 -0.894766
vn 0.127924 -0.885043 -0.447588
vn 0.497076 0.437739 -0.749199
vn 0.521896 0.630269 -0.574793
vn 0.133865 0.578659 -0.804509
vn 0.133865 0.578659 -0.804509
vn 0.521896 0.630269 -0.574793
vn 0.090992 0.822777 -0.561034
vn 0.432349 0.432169 -0.791394
vn 0.497076 0.437739 -0.749199
vn 0.407118 0.396494 -0.822829
vn 0.407118 0.396494 -0.822829
vn 0.497076 0.437739 -0.749199
vn 0.133865 0.578659 -0.804509
vn -0.132825 0.889388 -0.437432
vn -0.215107 0.906768 -0.362630
vn -0.078175 0.820790 -0.565856
vn -0.078175 0.820790 -0.565856
vn -0.215107 0.906768 -0.362630
vn -0.248811 0.866381 -0.432986
vn -0.279901 0.959111 -0.041960
vn -0.532763 0.832397 0.152577
vn -0.324952 0.936064 -0.134872
vn -0.324952 0.936064 -0.134872
vn -0.532763 0.832397 0.152577
vn -0.311969 0.945750 -0.090732
vn -0.615120 0.105825 0.781300
vn -0.763627 0.174886 0.621521
vn -0.947658 0.124972 0.293814
vn -0.947658 0.124972 0.293814
vn -0.763627 0.174886 0.621521
vn -0.946142 0.206415 0.249417
vn -0.982595 0.113272 0.147227
vn -0.829483 0.048153 0.556452
vn -0.947658 0.124972 0.293814
vn -0.947658 0.124972 0.293814
vn -0.829483 0.048153 0.556452
vn -0.615120 0.105825 0.781300
vn -0.013736 -0.995535 0.093390
vn -0.088016 -0.899578 0.427799
vn -0.216546 -0.944502 0.247030
vn -0.216546 -0.944502 0.247030
vn -0.088016 -0.899578 0.427799
vn -0.588653 -0.433815 0.682123
vn 0.025109 -0.999282 -0.028385
vn -0.019096 -0.997436 0.068965
vn -0.013736 -0.995535 0.093390
vn -0.013736 -0.995535 0.093390
vn -0.019096 -0.997436 0.068965
vn -0.088016 -0.899578 0.427799
vn 0.027856 -0.993372 -0.111521
vn -0.036714 -0.998203 -0.047363
vn 0.025109 -0.999282 -0.028385
vn 0.025109 -0.999282 -0.028385
vn -0.036714 -0.998203 -0.047363
vn -0.019096 -0.997436 0.068965
vn 0.046384 -0.981221 -0.187226
vn -0.113038 -0.988122 -0.104105
vn 0.027856 -0.993372 -0.111521
vn 0.027856 -0.993372 -0.111521
vn -0.113038 -0.988122 -0.104105
vn -0.036714 -0.998203 -0.047363
vn 0.942714 0.240214 -0.231488
vn 0.968634 0.204290 -0.141473
vn 0.809559 0.345175 -0.474836
vn 0.809559 0.345175 -0.474836
vn 0.968634 0.204290 -0.141473
vn 0.899981 0.337481 -0.275938
vn 0.853581 0.276712 -0.441396
vn 0.942714 0.240214 -0.231488
vn 0.713501 0.433026 -0.550821
vn 0.713501 0.433026 -0.550821
vn 0.942714 0.240214 -0.231488
vn 0.809559 0.345175 -0.474836
vn 0.001122 0.999726 -0.023381
vn 0.067880 0.996648 -0.045668
vn -0.243502 0.951696 -0.187034
vn -0.243502 0.951696 -0.187034
vn 0.067880 0.996648 -0.045668
vn -0.353478 0.935436 0.003656
vn 0.061458 0.991397 0.115561
vn 0.001122 0.999726 -0.023381
vn -0.226576 0.954125 -0.195729
vn -0.226576 0.954125 -0.195729
vn 0.001122 0.999726 -0.023381
vn -0.243502 0.951696 -0.187034
vn -0.324952 0.936064 -0.134872
vn -0.311969 0.945750 -0.090732
vn -0.226576 0.954125 -0.195729
vn -0.226576 0.954125 -0.195729
vn -0.311969 0.945750 -0.090732
vn 0.061458 0.991397 0.115561
s off
g Rock2:pCube2
usemtl Rock2:initialShadingGroup
f 48/1/1 2/2/2 47/3/3
f 47/3/4 2/2/5 5/4/6
f 58/5/7 3/6/8 57/7/9
f 57/7/10 3/6/11 6/8/12
f 47/3/13 5/4/14 46/9/15
f 46/9/16 5/4/17 8/10/18
f 6/8/19 9/11/20 57/7/21
f 57/7/22 9/11/23 56/12/24
f 46/9/25 8/10/26 45/13/27
f 45/13/28 8/10/29 42/14/30
f 56/12/31 9/11/32 55/15/33
f 55/15/34 9/11/35 41/16/36
f 44/17/37 11/18/38 43/19/39
f 43/19/40 11/18/41 34/20/42
f 66/21/43 12/22/44 65/23/45
f 65/23/46 12/22/47 33/24/48
f 14/25/49 17/26/50 54/27/51
f 54/27/52 17/26/53 53/28/54
f 64/29/55 15/30/56 63/31/57
f 63/31/58 15/30/59 18/32/60
f 17/26/61 20/33/62 53/28/63
f 53/28/64 20/33/65 52/34/66
f 63/31/67 18/32/68 62/35/69
f 62/35/70 18/32/71 21/36/72
f 51/37/73 30/38/74 50/39/75
f 50/39/76 30/38/77 23/40/78
f 61/41/79 31/42/80 60/43/81
f 60/43/82 31/42/83 24/44/84
f 49/45/85 38/46/86 48/47/87
f 48/47/88 38/46/89 2/48/90
f 39/49/91 3/50/92 59/51/93
f 59/51/94 3/50/95 58/52/96
f 24/53/97 31/54/98 25/55/99
f 25/55/100 31/54/101 32/56/102
f 3/6/103 39/57/104 6/8/105
f 6/8/106 39/57/107 40/58/108
f 25/55/109 32/56/110 12/59/111
f 12/59/112 32/56/113 33/60/114
f 6/8/115 40/58/116 9/11/117
f 9/11/118 40/58/119 41/61/120
f 29/62/121 22/63/122 28/64/123
f 28/64/124 22/63/125 26/65/126
f 37/66/127 1/67/128 36/68/129
f 36/68/130 1/67/131 4/69/132
f 28/64/133 26/65/134 27/70/135
f 27/70/136 26/65/137 10/71/138
f 4/69/139 7/72/140 36/68/141
f 36/68/142 7/72/143 35/73/144
f 16/74/145 28/64/146 13/75/147
f 13/75/148 28/64/149 27/70/150
f 19/76/151 29/62/152 16/74/153
f 16/74/154 29/62/155 28/64/156
f 52/34/157 20/33/158 51/37/159
f 51/37/160 20/33/161 30/38/162
f 62/35/163 21/36/164 61/41/165
f 61/41/166 21/36/167 31/42/168
f 32/56/169 31/54/170 18/77/171
f 18/77/172 31/54/173 21/78/174
f 33/60/175 32/56/176 15/79/177
f 15/79/178 32/56/179 18/77/180
f 33/24/181 15/30/182 65/23/183
f 65/23/184 15/30/185 64/29/186
f 43/19/187 34/20/188 54/27/189
f 54/27/190 34/20/191 14/25/192
f 36/68/193 35/73/194 26/65/195
f 26/65/196 35/73/197 10/71/198
f 22/63/199 37/66/200 26/65/201
f 26/65/202 37/66/203 36/68/204
f 50/39/205 23/40/206 49/45/207
f 49/45/208 23/40/209 38/46/210
f 60/43/211 24/44/212 59/51/213
f 59/51/214 24/44/215 39/49/216
f 39/57/217 24/53/218 40/58/219
f 40/58/220 24/53/221 25/55/222
f 40/58/223 25/55/224 41/61/225
f 41/61/226 25/55/227 12/59/228
f 55/15/229 41/16/230 66/21/231
f 66/21/232 41/16/233 12/22/234
f 45/13/235 42/14/236 44/17/237
f 44/17/238 42/14/239 11/18/240
f 44/17/241 43/19/242 10/80/243
f 10/80/244 43/19/245 27/81/246
f 35/82/247 45/13/248 10/80/249
f 10/80/250 45/13/251 44/17/252
f 7/72/253 46/9/254 35/82/255
f 35/82/256 46/9/257 45/13/258
f 4/69/259 47/3/260 7/72/261
f 7/72/262 47/3/263 46/9/264
f 1/67/265 48/1/266 4/69/267
f 4/69/268 48/1/269 47/3/270
f 37/83/271 49/45/272 1/84/273
f 1/84/274 49/45/275 48/47/276
f 22/85/277 50/39/278 37/83/279
f 37/83/280 50/39/281 49/45/282
f 29/86/283 51/37/284 22/85/285
f 22/85/286 51/37/287 50/39/288
f 19/87/289 52/34/290 29/86/291
f 29/86/292 52/34/293 51/37/294
f 53/28/295 52/34/296 16/88/297
f 16/88/298 52/34/299 19/87/300
f 54/27/301 53/28/302 13/89/303
f 13/89/304 53/28/305 16/88/306
f 27/81/307 43/19/308 13/89/309
f 13/89/310 43/19/311 54/27/312
f 8/10/313 56/12/314 42/14/315
f 42/14/316 56/12/317 55/15/318
f 57/7/319 56/12/320 5/4/321
f 5/4/322 56/12/323 8/10/324
f 2/2/325 58/5/326 5/4/327
f 5/4/328 58/5/329 57/7/330
f 38/46/331 59/51/332 2/48/333
f 2/48/334 59/51/335 58/52/336
f 23/40/337 60/43/338 38/46/339
f 38/46/340 60/43/341 59/51/342
f 30/38/343 61/41/344 23/40/345
f 23/40/346 61/41/347 60/43/348
f 20/33/349 62/35/350 30/38/351
f 30/38/352 62/35/353 61/41/354
f 63/31/355 62/35/356 17/26/357
f 17/26/358 62/35/359 20/33/360
f 64/29/361 63/31/362 14/25/363
f 14/25/364 63/31/365 17/26/366
f 65/23/367 64/29/368 34/20/369
f 34/20/370 64/29/371 14/25/372
f 66/21/373 65/23/374 11/18/375
f 11/18/376 65/23/377 34/20/378
f 42/14/379 55/15/380 11/18/381
f 11/18/382 55/15/383 66/21/384
