# This file uses centimeters as units for non-parametric coordinates.

mtllib rock3.mtl
g default
v -48.333314 -8.200300 -30.570186
v -30.018913 -6.532200 18.141514
v -12.593913 0.976300 46.496665
v -39.729014 8.596550 -22.740186
v -26.021264 13.648351 25.722265
v -4.649314 15.970500 51.538664
v -39.106664 21.988951 -24.819985
v -24.090764 29.020250 21.067965
v -3.702014 30.769849 53.291666
v -23.050564 26.283500 -32.432685
v -2.972763 33.963299 12.436215
v 25.734488 32.349449 51.053613
v -10.479664 24.314649 -41.783137
v 16.034337 36.666101 -3.378185
v 33.774636 34.734851 29.138764
v -3.889263 13.830650 -48.004187
v 22.373087 16.551450 -14.402835
v 42.945737 20.485500 40.389666
v -13.171963 8.537500 -59.315282
v 28.435335 -5.343050 -19.716286
v 50.394386 -9.476600 45.310413
v -26.144364 -6.378400 -50.958085
v 0.019136 -7.984200 -3.353085
v 22.726685 -6.570850 56.850564
v 24.676136 17.061800 55.104363
v -26.987514 2.688750 -41.517637
v -14.375513 25.458699 -40.896434
v -15.691514 14.974000 -42.567936
v -21.074764 5.223050 -56.390235
v 22.129587 -5.776350 -13.325835
v 43.796236 -8.783400 48.095363
v 38.595736 19.633000 44.032317
v 31.128687 34.815750 35.215166
v 11.310536 35.064349 -1.697435
v -36.074063 25.047851 -26.014735
v -35.430714 8.165400 -27.082135
v -43.983465 -8.399950 -35.470784
v -23.842464 -7.924400 15.007814
v -8.451314 -1.357500 49.345266
v -0.243014 16.156051 52.814513
v 3.676036 36.343801 50.599014
v -20.131914 29.936799 18.381863
v -8.777164 27.558550 -31.816185
v -19.287014 28.781751 -22.608485
v -32.153813 27.263200 -16.711285
v -35.761514 25.505200 -14.979985
v -36.843162 9.796650 -11.268185
v -44.124114 -8.188100 -20.241785
v -39.469814 -8.394600 -25.606436
v -20.724263 -6.847450 -42.410934
v -4.967014 -4.620800 -57.751084
v -2.181163 3.610000 -58.261985
v 3.908687 9.467850 -38.887936
v -5.223364 27.438051 -33.666784
v -1.902764 35.218149 42.618566
v -12.111764 29.576150 40.449616
v -10.282514 15.477049 46.961516
v -21.032613 -1.259950 35.804113
v -12.108564 -5.312750 43.764513
v 17.925588 -6.737350 45.918613
v 39.278037 -8.272100 35.826563
v 45.866287 -8.754150 32.405865
v 39.804235 19.516100 29.980716
v 30.366236 35.240951 22.504416
v 26.999087 36.103800 28.109315
v 18.247837 36.892101 45.261865
vt 0.401959 0.000000
vt 0.500000 0.000000
vt 0.401959 0.125000
vt 0.500000 0.125000
vt 0.600374 0.000000
vt 0.625000 0.000000
vt 0.600374 0.125000
vt 0.625000 0.125000
vt 0.401959 0.250000
vt 0.500000 0.250000
vt 0.625000 0.250000
vt 0.600374 0.250000
vt 0.401959 0.273831
vt 0.500000 0.273831
vt 0.600374 0.273831
vt 0.625000 0.273831
vt 0.401959 0.375000
vt 0.500000 0.375000
vt 0.401959 0.470013
vt 0.500000 0.470013
vt 0.600374 0.375000
vt 0.625000 0.375000
vt 0.600374 0.470013
vt 0.625000 0.470013
vt 0.500000 0.500000
vt 0.500000 0.625000
vt 0.401959 0.500000
vt 0.401959 0.625000
vt 0.600374 0.500000
vt 0.625000 0.500000
vt 0.600374 0.625000
vt 0.625000 0.625000
vt 0.500000 0.750000
vt 0.401959 0.750000
vt 0.600374 0.750000
vt 0.625000 0.750000
vt 0.401959 0.779987
vt 0.500000 0.779987
vt 0.401959 0.875000
vt 0.500000 0.875000
vt 0.600374 0.779987
vt 0.625000 0.779987
vt 0.600374 0.875000
vt 0.625000 0.875000
vt 0.401959 0.976169
vt 0.500000 0.976169
vt 0.401959 1.000000
vt 0.500000 1.000000
vt 0.625000 0.976169
vt 0.625000 1.000000
vt 0.600374 0.976169
vt 0.600374 1.000000
vt 0.750000 0.000000
vt 0.845013 0.000000
vt 0.750000 0.125000
vt 0.845013 0.125000
vt 0.648831 0.000000
vt 0.648831 0.125000
vt 0.750000 0.250000
vt 0.845013 0.250000
vt 0.648831 0.250000
vt 0.154987 0.000000
vt 0.250000 0.000000
vt 0.154987 0.125000
vt 0.250000 0.125000
vt 0.351169 0.000000
vt 0.375000 0.000000
vt 0.351169 0.125000
vt 0.375000 0.125000
vt 0.154987 0.250000
vt 0.250000 0.250000
vt 0.375000 0.250000
vt 0.351169 0.250000
vt 0.125000 0.125000
vt 0.125000 0.250000
vt 0.125000 0.000000
vt 0.875000 0.125000
vt 0.875000 0.000000
vt 0.875000 0.250000
vt 0.375000 0.375000
vt 0.375000 0.470013
vt 0.375000 0.273831
vt 0.375000 0.976169
vt 0.375000 1.000000
vt 0.375000 0.875000
vt 0.375000 0.779987
vt 0.375000 0.750000
vt 0.375000 0.625000
vt 0.375000 0.500000
vn -0.915177 0.229672 0.331213
vn -0.935297 0.127209 0.330209
vn -0.950440 0.144606 0.275231
vn -0.950440 0.144606 0.275231
vn -0.935297 0.127209 0.330209
vn -0.909022 0.135760 0.394016
vn -0.859041 0.051796 0.509280
vn -0.783167 0.105189 0.612849
vn -0.772718 0.121368 0.623038
vn -0.772718 0.121368 0.623038
vn -0.783167 0.105189 0.612849
vn -0.630440 -0.003031 0.776232
vn -0.950440 0.144606 0.275231
vn -0.909022 0.135760 0.394016
vn -0.948300 0.158756 0.274814
vn -0.948300 0.158756 0.274814
vn -0.909022 0.135760 0.394016
vn -0.901206 0.225281 0.370237
vn -0.630440 -0.003031 0.776232
vn -0.820459 0.121835 0.558573
vn -0.772718 0.121368 0.623038
vn -0.772718 0.121368 0.623038
vn -0.820459 0.121835 0.558573
vn -0.823610 0.189679 0.534498
vn -0.452740 0.890973 0.034557
vn -0.222118 0.974172 0.040657
vn -0.191290 0.980735 -0.039586
vn -0.191290 0.980735 -0.039586
vn -0.222118 0.974172 0.040657
vn -0.243327 0.969943 0.001622
vn -0.479663 0.853787 0.202413
vn -0.511388 0.820419 0.255724
vn -0.240136 0.970484 0.022267
vn -0.240136 0.970484 0.022267
vn -0.511388 0.820419 0.255724
vn -0.166771 0.984453 0.055142
vn -0.112471 0.987920 -0.106603
vn -0.146232 0.987790 -0.053740
vn -0.102964 0.982802 -0.153294
vn -0.102964 0.982802 -0.153294
vn -0.146232 0.987790 -0.053740
vn -0.162559 0.985663 -0.045191
vn 0.024676 0.998591 0.046979
vn 0.333926 0.909481 0.247666
vn 0.006086 0.999904 -0.012437
vn 0.006086 0.999904 -0.012437
vn 0.333926 0.909481 0.247666
vn 0.064304 0.987821 0.141688
vn 0.749516 0.461734 -0.474371
vn 0.812359 0.366857 -0.453308
vn 0.620032 0.508330 -0.597630
vn 0.620032 0.508330 -0.597630
vn 0.812359 0.366857 -0.453308
vn 0.685782 0.493761 -0.534699
vn 0.844882 0.294889 -0.446334
vn 0.862613 0.320094 -0.391712
vn 0.895310 0.262603 -0.359805
vn 0.895310 0.262603 -0.359805
vn 0.862613 0.320094 -0.391712
vn 0.923510 0.235561 -0.302722
vn 0.812359 0.366857 -0.453308
vn 0.861510 0.358989 -0.359065
vn 0.685782 0.493761 -0.534699
vn 0.685782 0.493761 -0.534699
vn 0.861510 0.358989 -0.359065
vn 0.657074 0.617969 -0.431703
vn 0.895310 0.262603 -0.359805
vn 0.923510 0.235561 -0.302722
vn 0.918517 0.228783 -0.322467
vn 0.918517 0.228783 -0.322467
vn 0.923510 0.235561 -0.302722
vn 0.931364 0.179517 -0.316756
vn 0.210466 -0.905114 -0.369422
vn 0.047512 -0.996786 -0.064506
vn 0.054854 -0.996492 -0.063199
vn 0.054854 -0.996492 -0.063199
vn 0.047512 -0.996786 -0.064506
vn 0.026731 -0.999435 -0.020350
vn -0.019456 -0.999673 -0.016591
vn -0.083291 -0.996512 -0.005082
vn -0.030843 -0.998715 0.040220
vn -0.030843 -0.998715 0.040220
vn -0.083291 -0.996512 -0.005082
vn -0.076980 -0.994229 0.074722
vn 0.015014 -0.999859 -0.007550
vn -0.031923 -0.998145 0.051849
vn -0.047990 -0.998281 0.033655
vn -0.047990 -0.998281 0.033655
vn -0.031923 -0.998145 0.051849
vn -0.233739 -0.955729 0.178741
vn -0.340374 -0.647420 0.681904
vn -0.696104 -0.330587 0.637300
vn -0.175707 -0.950529 0.256167
vn -0.175707 -0.950529 0.256167
vn -0.696104 -0.330587 0.637300
vn -0.695448 -0.478676 0.535930
vn 0.113017 0.021644 0.993357
vn 0.450527 0.153532 0.879462
vn 0.206844 0.144853 0.967591
vn 0.206844 0.144853 0.967591
vn 0.450527 0.153532 0.879462
vn 0.613794 0.314634 0.724060
vn -0.559639 0.017915 0.828543
vn -0.278662 -0.067200 0.958035
vn -0.296462 -0.069081 0.952543
vn -0.296462 -0.069081 0.952543
vn -0.278662 -0.067200 0.958035
vn -0.145619 0.034789 0.988729
vn 0.206844 0.144853 0.967591
vn 0.613794 0.314634 0.724060
vn 0.386559 0.351907 0.852487
vn 0.386559 0.351907 0.852487
vn 0.613794 0.314634 0.724060
vn 0.752358 0.565875 0.337259
vn -0.296462 -0.069081 0.952543
vn -0.145619 0.034789 0.988729
vn 0.284897 0.036157 0.957876
vn 0.284897 0.036157 0.957876
vn -0.145619 0.034789 0.988729
vn -0.009232 0.156601 0.987619
vn -0.757581 0.640897 -0.123786
vn -0.673952 0.551429 -0.491645
vn -0.415439 0.536112 -0.734843
vn -0.415439 0.536112 -0.734843
vn -0.673952 0.551429 -0.491645
vn -0.619201 0.472510 -0.627155
vn -0.585678 0.580754 -0.565425
vn -0.587028 0.582612 -0.562104
vn -0.751550 0.293452 -0.590811
vn -0.751550 0.293452 -0.590811
vn -0.587028 0.582612 -0.562104
vn -0.650548 0.342220 -0.677992
vn -0.415439 0.536112 -0.734843
vn -0.619201 0.472510 -0.627155
vn -0.559390 0.337301 -0.757173
vn -0.559390 0.337301 -0.757173
vn -0.619201 0.472510 -0.627155
vn -0.525755 0.380635 -0.760722
vn -0.650548 0.342220 -0.677992
vn -0.474872 0.017707 -0.879877
vn -0.751550 0.293452 -0.590811
vn -0.751550 0.293452 -0.590811
vn -0.474872 0.017707 -0.879877
vn -0.560381 0.277246 -0.780454
vn -0.289826 0.742954 -0.603340
vn -0.415439 0.536112 -0.734843
vn -0.314431 0.252334 -0.915129
vn -0.314431 0.252334 -0.915129
vn -0.415439 0.536112 -0.734843
vn -0.559390 0.337301 -0.757173
vn -0.412263 0.906987 -0.086103
vn -0.757581 0.640897 -0.123786
vn -0.289826 0.742954 -0.603340
vn -0.289826 0.742954 -0.603340
vn -0.757581 0.640897 -0.123786
vn -0.415439 0.536112 -0.734843
vn 0.516218 -0.247518 -0.819911
vn 0.124028 -0.981312 -0.147122
vn 0.210466 -0.905114 -0.369422
vn 0.210466 -0.905114 -0.369422
vn 0.124028 -0.981312 -0.147122
vn 0.047512 -0.996786 -0.064506
vn -0.069671 -0.997133 -0.029529
vn -0.094052 -0.995436 -0.016183
vn -0.019456 -0.999673 -0.016591
vn -0.019456 -0.999673 -0.016591
vn -0.094052 -0.995436 -0.016183
vn -0.083291 -0.996512 -0.005082
vn 0.613794 0.314634 0.724060
vn 0.450527 0.153532 0.879462
vn 0.503146 0.440888 0.743278
vn 0.503146 0.440888 0.743278
vn 0.450527 0.153532 0.879462
vn 0.398746 0.244298 0.883923
vn 0.752358 0.565875 0.337259
vn 0.613794 0.314634 0.724060
vn 0.699538 0.602406 0.384387
vn 0.699538 0.602406 0.384387
vn 0.613794 0.314634 0.724060
vn 0.503146 0.440888 0.743278
vn 0.064304 0.987821 0.141688
vn 0.197163 0.980352 0.006010
vn 0.006086 0.999904 -0.012437
vn 0.006086 0.999904 -0.012437
vn 0.197163 0.980352 0.006010
vn 0.065414 0.997102 -0.038831
vn -0.102964 0.982802 -0.153294
vn -0.162559 0.985663 -0.045191
vn -0.120172 0.974038 -0.191857
vn -0.120172 0.974038 -0.191857
vn -0.162559 0.985663 -0.045191
vn -0.293916 0.952348 0.081523
vn -0.751550 0.293452 -0.590811
vn -0.560381 0.277246 -0.780454
vn -0.619201 0.472510 -0.627155
vn -0.619201 0.472510 -0.627155
vn -0.560381 0.277246 -0.780454
vn -0.525755 0.380635 -0.760722
vn -0.673952 0.551429 -0.491645
vn -0.585678 0.580754 -0.565425
vn -0.619201 0.472510 -0.627155
vn -0.619201 0.472510 -0.627155
vn -0.585678 0.580754 -0.565425
vn -0.751550 0.293452 -0.590811
vn 0.054854 -0.996492 -0.063199
vn 0.026731 -0.999435 -0.020350
vn 0.015014 -0.999859 -0.007550
vn 0.015014 -0.999859 -0.007550
vn 0.026731 -0.999435 -0.020350
vn -0.031923 -0.998145 0.051849
vn -0.030843 -0.998715 0.040220
vn -0.076980 -0.994229 0.074722
vn -0.175707 -0.950529 0.256167
vn -0.175707 -0.950529 0.256167
vn -0.076980 -0.994229 0.074722
vn -0.340374 -0.647420 0.681904
vn -0.278662 -0.067200 0.958035
vn 0.113017 0.021644 0.993357
vn -0.145619 0.034789 0.988729
vn -0.145619 0.034789 0.988729
vn 0.113017 0.021644 0.993357
vn 0.206844 0.144853 0.967591
vn -0.145619 0.034789 0.988729
vn 0.206844 0.144853 0.967591
vn -0.009232 0.156601 0.987619
vn -0.009232 0.156601 0.987619
vn 0.206844 0.144853 0.967591
vn 0.386559 0.351907 0.852487
vn -0.240136 0.970484 0.022267
vn -0.166771 0.984453 0.055142
vn 0.024676 0.998591 0.046979
vn 0.024676 0.998591 0.046979
vn -0.166771 0.984453 0.055142
vn 0.333926 0.909481 0.247666
vn -0.191290 0.980735 -0.039586
vn -0.243327 0.969943 0.001622
vn -0.112471 0.987920 -0.106603
vn -0.112471 0.987920 -0.106603
vn -0.243327 0.969943 0.001622
vn -0.146232 0.987790 -0.053740
vn -0.112471 0.987920 -0.106603
vn -0.102964 0.982802 -0.153294
vn -0.126163 0.973175 -0.192386
vn -0.126163 0.973175 -0.192386
vn -0.102964 0.982802 -0.153294
vn -0.012556 0.975883 -0.217934
vn -0.289384 0.948816 -0.126512
vn -0.191290 0.980735 -0.039586
vn -0.126163 0.973175 -0.192386
vn -0.126163 0.973175 -0.192386
vn -0.191290 0.980735 -0.039586
vn -0.112471 0.987920 -0.106603
vn -0.711869 0.702256 -0.008941
vn -0.452740 0.890973 0.034557
vn -0.289384 0.948816 -0.126512
vn -0.289384 0.948816 -0.126512
vn -0.452740 0.890973 0.034557
vn -0.191290 0.980735 -0.039586
vn -0.950780 0.206100 0.231389
vn -0.950440 0.144606 0.275231
vn -0.955128 0.122452 0.269697
vn -0.955128 0.122452 0.269697
vn -0.950440 0.144606 0.275231
vn -0.948300 0.158756 0.274814
vn -0.887442 0.286160 0.361329
vn -0.915177 0.229672 0.331213
vn -0.950780 0.206100 0.231389
vn -0.950780 0.206100 0.231389
vn -0.915177 0.229672 0.331213
vn -0.950440 0.144606 0.275231
vn 0.044225 -0.998716 -0.024717
vn 0.015014 -0.999859 -0.007550
vn -0.029469 -0.999475 0.013501
vn -0.029469 -0.999475 0.013501
vn 0.015014 -0.999859 -0.007550
vn -0.047990 -0.998281 0.033655
vn -0.044179 -0.932790 -0.357703
vn 0.054854 -0.996492 -0.063199
vn 0.044225 -0.998716 -0.024717
vn 0.044225 -0.998716 -0.024717
vn 0.054854 -0.996492 -0.063199
vn 0.015014 -0.999859 -0.007550
vn -0.229800 -0.280990 -0.931792
vn 0.210466 -0.905114 -0.369422
vn -0.044179 -0.932790 -0.357703
vn -0.044179 -0.932790 -0.357703
vn 0.210466 -0.905114 -0.369422
vn 0.054854 -0.996492 -0.063199
vn -0.126642 -0.469284 -0.873919
vn 0.516218 -0.247518 -0.819911
vn -0.229800 -0.280990 -0.931792
vn -0.229800 -0.280990 -0.931792
vn 0.516218 -0.247518 -0.819911
vn 0.210466 -0.905114 -0.369422
vn 0.685782 0.493761 -0.534699
vn 0.657074 0.617969 -0.431703
vn 0.662674 0.628822 -0.406751
vn 0.662674 0.628822 -0.406751
vn 0.657074 0.617969 -0.431703
vn 0.368532 0.688490 -0.624632
vn 0.620032 0.508330 -0.597630
vn 0.685782 0.493761 -0.534699
vn 0.643312 0.512542 -0.568727
vn 0.643312 0.512542 -0.568727
vn 0.685782 0.493761 -0.534699
vn 0.662674 0.628822 -0.406751
vn -0.012556 0.975883 -0.217934
vn -0.102964 0.982802 -0.153294
vn 0.070761 0.944900 -0.319621
vn 0.070761 0.944900 -0.319621
vn -0.102964 0.982802 -0.153294
vn -0.120172 0.974038 -0.191857
vn -0.222118 0.974172 0.040657
vn -0.479663 0.853787 0.202413
vn -0.243327 0.969943 0.001622
vn -0.243327 0.969943 0.001622
vn -0.479663 0.853787 0.202413
vn -0.240136 0.970484 0.022267
vn -0.772718 0.121368 0.623038
vn -0.823610 0.189679 0.534498
vn -0.909022 0.135760 0.394016
vn -0.909022 0.135760 0.394016
vn -0.823610 0.189679 0.534498
vn -0.901206 0.225281 0.370237
vn -0.935297 0.127209 0.330209
vn -0.859041 0.051796 0.509280
vn -0.909022 0.135760 0.394016
vn -0.909022 0.135760 0.394016
vn -0.859041 0.051796 0.509280
vn -0.772718 0.121368 0.623038
vn -0.031923 -0.998145 0.051849
vn -0.175707 -0.950529 0.256167
vn -0.233739 -0.955729 0.178741
vn -0.233739 -0.955729 0.178741
vn -0.175707 -0.950529 0.256167
vn -0.695448 -0.478676 0.535930
vn 0.026731 -0.999435 -0.020350
vn -0.030843 -0.998715 0.040220
vn -0.031923 -0.998145 0.051849
vn -0.031923 -0.998145 0.051849
vn -0.030843 -0.998715 0.040220
vn -0.175707 -0.950529 0.256167
vn 0.047512 -0.996786 -0.064506
vn -0.019456 -0.999673 -0.016591
vn 0.026731 -0.999435 -0.020350
vn 0.026731 -0.999435 -0.020350
vn -0.019456 -0.999673 -0.016591
vn -0.030843 -0.998715 0.040220
vn 0.124028 -0.981312 -0.147122
vn -0.069671 -0.997133 -0.029529
vn 0.047512 -0.996786 -0.064506
vn 0.047512 -0.996786 -0.064506
vn -0.069671 -0.997133 -0.029529
vn -0.019456 -0.999673 -0.016591
vn 0.895310 0.262603 -0.359805
vn 0.918517 0.228783 -0.322467
vn 0.812359 0.366857 -0.453308
vn 0.812359 0.366857 -0.453308
vn 0.918517 0.228783 -0.322467
vn 0.861510 0.358989 -0.359065
vn 0.844882 0.294889 -0.446334
vn 0.895310 0.262603 -0.359805
vn 0.749516 0.461734 -0.474371
vn 0.749516 0.461734 -0.474371
vn 0.895310 0.262603 -0.359805
vn 0.812359 0.366857 -0.453308
vn 0.006086 0.999904 -0.012437
vn 0.065414 0.997102 -0.038831
vn -0.162559 0.985663 -0.045191
vn -0.162559 0.985663 -0.045191
vn 0.065414 0.997102 -0.038831
vn -0.293916 0.952348 0.081523
vn 0.024676 0.998591 0.046979
vn 0.006086 0.999904 -0.012437
vn -0.146232 0.987790 -0.053740
vn -0.146232 0.987790 -0.053740
vn 0.006086 0.999904 -0.012437
vn -0.162559 0.985663 -0.045191
vn -0.243327 0.969943 0.001622
vn -0.240136 0.970484 0.022267
vn -0.146232 0.987790 -0.053740
vn -0.146232 0.987790 -0.053740
vn -0.240136 0.970484 0.022267
vn 0.024676 0.998591 0.046979
s off
g Rock3:pCube3
usemtl Rock3:initialShadingGroup
f 48/1/1 2/2/2 47/3/3
f 47/3/4 2/2/5 5/4/6
f 58/5/7 3/6/8 57/7/9
f 57/7/10 3/6/11 6/8/12
f 47/3/13 5/4/14 46/9/15
f 46/9/16 5/4/17 8/10/18
f 6/8/19 9/11/20 57/7/21
f 57/7/22 9/11/23 56/12/24
f 46/9/25 8/10/26 45/13/27
f 45/13/28 8/10/29 42/14/30
f 56/12/31 9/11/32 55/15/33
f 55/15/34 9/11/35 41/16/36
f 44/17/37 11/18/38 43/19/39
f 43/19/40 11/18/41 34/20/42
f 66/21/43 12/22/44 65/23/45
f 65/23/46 12/22/47 33/24/48
f 14/25/49 17/26/50 54/27/51
f 54/27/52 17/26/53 53/28/54
f 64/29/55 15/30/56 63/31/57
f 63/31/58 15/30/59 18/32/60
f 17/26/61 20/33/62 53/28/63
f 53/28/64 20/33/65 52/34/66
f 63/31/67 18/32/68 62/35/69
f 62/35/70 18/32/71 21/36/72
f 51/37/73 30/38/74 50/39/75
f 50/39/76 30/38/77 23/40/78
f 61/41/79 31/42/80 60/43/81
f 60/43/82 31/42/83 24/44/84
f 49/45/85 38/46/86 48/47/87
f 48/47/88 38/46/89 2/48/90
f 39/49/91 3/50/92 59/51/93
f 59/51/94 3/50/95 58/52/96
f 24/53/97 31/54/98 25/55/99
f 25/55/100 31/54/101 32/56/102
f 3/6/103 39/57/104 6/8/105
f 6/8/106 39/57/107 40/58/108
f 25/55/109 32/56/110 12/59/111
f 12/59/112 32/56/113 33/60/114
f 6/8/115 40/58/116 9/11/117
f 9/11/118 40/58/119 41/61/120
f 29/62/121 22/63/122 28/64/123
f 28/64/124 22/63/125 26/65/126
f 37/66/127 1/67/128 36/68/129
f 36/68/130 1/67/131 4/69/132
f 28/64/133 26/65/134 27/70/135
f 27/70/136 26/65/137 10/71/138
f 4/69/139 7/72/140 36/68/141
f 36/68/142 7/72/143 35/73/144
f 16/74/145 28/64/146 13/75/147
f 13/75/148 28/64/149 27/70/150
f 19/76/151 29/62/152 16/74/153
f 16/74/154 29/62/155 28/64/156
f 52/34/157 20/33/158 51/37/159
f 51/37/160 20/33/161 30/38/162
f 62/35/163 21/36/164 61/41/165
f 61/41/166 21/36/167 31/42/168
f 32/56/169 31/54/170 18/77/171
f 18/77/172 31/54/173 21/78/174
f 33/60/175 32/56/176 15/79/177
f 15/79/178 32/56/179 18/77/180
f 33/24/181 15/30/182 65/23/183
f 65/23/184 15/30/185 64/29/186
f 43/19/187 34/20/188 54/27/189
f 54/27/190 34/20/191 14/25/192
f 36/68/193 35/73/194 26/65/195
f 26/65/196 35/73/197 10/71/198
f 22/63/199 37/66/200 26/65/201
f 26/65/202 37/66/203 36/68/204
f 50/39/205 23/40/206 49/45/207
f 49/45/208 23/40/209 38/46/210
f 60/43/211 24/44/212 59/51/213
f 59/51/214 24/44/215 39/49/216
f 39/57/217 24/53/218 40/58/219
f 40/58/220 24/53/221 25/55/222
f 40/58/223 25/55/224 41/61/225
f 41/61/226 25/55/227 12/59/228
f 55/15/229 41/16/230 66/21/231
f 66/21/232 41/16/233 12/22/234
f 45/13/235 42/14/236 44/17/237
f 44/17/238 42/14/239 11/18/240
f 44/17/241 43/19/242 10/80/243
f 10/80/244 43/19/245 27/81/246
f 35/82/247 45/13/248 10/80/249
f 10/80/250 45/13/251 44/17/252
f 7/72/253 46/9/254 35/82/255
f 35/82/256 46/9/257 45/13/258
f 4/69/259 47/3/260 7/72/261
f 7/72/262 47/3/263 46/9/264
f 1/67/265 48/1/266 4/69/267
f 4/69/268 48/1/269 47/3/270
f 37/83/271 49/45/272 1/84/273
f 1/84/274 49/45/275 48/47/276
f 22/85/277 50/39/278 37/83/279
f 37/83/280 50/39/281 49/45/282
f 29/86/283 51/37/284 22/85/285
f 22/85/286 51/37/287 50/39/288
f 19/87/289 52/34/290 29/86/291
f 29/86/292 52/34/293 51/37/294
f 53/28/295 52/34/296 16/88/297
f 16/88/298 52/34/299 19/87/300
f 54/27/301 53/28/302 13/89/303
f 13/89/304 53/28/305 16/88/306
f 27/81/307 43/19/308 13/89/309
f 13/89/310 43/19/311 54/27/312
f 8/10/313 56/12/314 42/14/315
f 42/14/316 56/12/317 55/15/318
f 57/7/319 56/12/320 5/4/321
f 5/4/322 56/12/323 8/10/324
f 2/2/325 58/5/326 5/4/327
f 5/4/328 58/5/329 57/7/330
f 38/46/331 59/51/332 2/48/333
f 2/48/334 59/51/335 58/52/336
f 23/40/337 60/43/338 38/46/339
f 38/46/340 60/43/341 59/51/342
f 30/38/343 61/41/344 23/40/345
f 23/40/346 61/41/347 60/43/348
f 20/33/349 62/35/350 30/38/351
f 30/38/352 62/35/353 61/41/354
f 63/31/355 62/35/356 17/26/357
f 17/26/358 62/35/359 20/33/360
f 64/29/361 63/31/362 14/25/363
f 14/25/364 63/31/365 17/26/366
f 65/23/367 64/29/368 34/20/369
f 34/20/370 64/29/371 14/25/372
f 66/21/373 65/23/374 11/18/375
f 11/18/376 65/23/377 34/20/378
f 42/14/379 55/15/380 11/18/381
f 11/18/382 55/15/383 66/21/384
