# This file uses centimeters as units for non-parametric coordinates.

mtllib soccer.mtl
g default
v 0.000000 1.000000 0.000000
v 0.395248 0.918574 0.000000
v -0.222786 0.918574 -0.326477
v -0.144097 0.918574 0.368045
v 0.567710 0.755723 -0.326477
v 0.495428 0.786825 0.368045
v -0.589668 0.755723 -0.284910
v -0.050324 0.755723 -0.652955
v 0.162095 0.786825 0.595509
v -0.510979 0.755723 0.409613
v 0.840353 0.461122 -0.284910
v 0.344925 0.674298 -0.652955
v 0.768071 0.492224 0.409613
v -0.643952 0.492224 -0.585696
v -0.733765 0.674298 0.083135
v -0.310619 0.492224 -0.813161
v 0.101404 0.492224 0.864542
v -0.571670 0.461122 0.678644
v 0.786069 0.197624 -0.585696
v 0.940533 0.329373 0.083135
v 0.479878 0.329373 -0.813161
v 0.707379 0.197624 0.678644
v -0.842332 0.147301 -0.518439
v -0.932145 0.329373 0.150394
v -0.175666 0.147301 -0.973367
v 0.374046 0.197624 0.906110
v -0.265479 0.329373 0.906110
v -0.831965 0.197624 0.518439
v 0.831965 -0.197624 -0.518439
v 0.986425 -0.065875 0.150394
v 0.219582 0.065875 -0.973367
v 0.842332 -0.147301 0.518439
v -0.707379 -0.197624 -0.678644
v -0.986425 0.065875 -0.150394
v -0.374046 -0.197624 -0.906110
v 0.175666 -0.147301 0.973367
v -0.219582 -0.065875 0.973367
v -0.786069 -0.197624 0.585696
v 0.571670 -0.461122 -0.678644
v 0.932145 -0.329373 -0.150394
v 0.265479 -0.329373 -0.906110
v 0.643952 -0.492224 0.585696
v -0.768071 -0.492224 -0.409613
v -0.940533 -0.329373 -0.083135
v -0.101404 -0.492224 -0.864542
v 0.310619 -0.492224 0.813161
v -0.479878 -0.329373 0.813161
v -0.840353 -0.461122 0.284910
v 0.510979 -0.755723 -0.409613
v 0.733765 -0.674298 -0.083135
v 0.589668 -0.755723 0.284910
v -0.495428 -0.786825 -0.368045
v -0.162095 -0.786825 -0.595509
v 0.050324 -0.755723 0.652955
v -0.344925 -0.674298 0.652955
v -0.567710 -0.755723 0.326477
v 0.144097 -0.918574 -0.368045
v 0.222786 -0.918574 0.326477
v -0.395248 -0.918574 -0.000000
v 0.000000 -1.000000 -0.000000
vt 0.032258 0.299280
vt 0.096774 0.299280
vt 0.129032 0.355153
vt 0.096774 0.411025
vt 0.032258 0.411025
vt 0.000000 0.355153
vt 0.225806 0.299280
vt 0.290323 0.299280
vt 0.322581 0.355153
vt 0.290323 0.411025
vt 0.225806 0.411025
vt 0.193548 0.355153
vt 0.419355 0.299280
vt 0.483871 0.299280
vt 0.516129 0.355153
vt 0.483871 0.411025
vt 0.419355 0.411025
vt 0.387097 0.355153
vt 0.612903 0.299280
vt 0.677419 0.299280
vt 0.709677 0.355153
vt 0.677419 0.411025
vt 0.612903 0.411025
vt 0.580645 0.355153
vt 0.806452 0.299280
vt 0.870968 0.299280
vt 0.903226 0.355153
vt 0.870968 0.411025
vt 0.806452 0.411025
vt 0.774194 0.355153
vt 0.903226 0.466898
vt 0.870968 0.522771
vt 0.806452 0.522771
vt 0.774194 0.466898
vt 0.709677 0.466898
vt 0.677419 0.522771
vt 0.612903 0.522771
vt 0.580645 0.466898
vt 0.516129 0.466898
vt 0.483871 0.522771
vt 0.419355 0.522771
vt 0.387097 0.466898
vt 0.322581 0.466898
vt 0.290323 0.522771
vt 0.225806 0.522771
vt 0.193548 0.466898
vt 0.129032 0.466898
vt 0.096774 0.522771
vt 0.032258 0.522771
vt 0.000000 0.466898
vt 0.193548 0.578643
vt 0.129032 0.578643
vt 0.387097 0.578643
vt 0.322581 0.578643
vt 0.580645 0.578643
vt 0.516129 0.578643
vt 0.774194 0.578643
vt 0.709677 0.578643
vt 0.967742 0.466898
vt 1.000000 0.522771
vt 0.967742 0.578643
vt 0.903226 0.578643
vt 1.000000 0.634516
vt 0.967742 0.690388
vt 0.903226 0.690388
vt 0.870968 0.634516
vt 0.806452 0.634516
vt 0.774194 0.690388
vt 0.709677 0.690388
vt 0.677419 0.634516
vt 0.612903 0.634516
vt 0.580645 0.690388
vt 0.516129 0.690388
vt 0.483871 0.634516
vt 0.419355 0.634516
vt 0.387097 0.690388
vt 0.322581 0.690388
vt 0.290323 0.634516
vt 0.225806 0.634516
vt 0.193548 0.690388
vt 0.129032 0.690388
vt 0.096774 0.634516
vt 0.116711 0.584129
vt 0.064516 0.622051
vt 0.012321 0.584129
vt 0.310259 0.584129
vt 0.258065 0.622051
vt 0.205870 0.584129
vt 0.503808 0.584129
vt 0.451613 0.622051
vt 0.399418 0.584129
vt 0.697356 0.584129
vt 0.645161 0.622051
vt 0.592967 0.584129
vt 0.890904 0.584129
vt 0.838710 0.622051
vt 0.786515 0.584129
vt 0.213485 0.751747
vt 0.161290 0.789669
vt 0.109096 0.751747
vt 0.109096 0.405539
vt 0.161290 0.367618
vt 0.213485 0.405539
vt 0.302644 0.405539
vt 0.354839 0.367618
vt 0.407033 0.405539
vt 0.496192 0.405539
vt 0.548387 0.367618
vt 0.600582 0.405539
vt 0.689741 0.405539
vt 0.741935 0.367618
vt 0.794130 0.405539
vt 0.883289 0.405539
vt 0.935484 0.367618
vt 0.987679 0.405539
vt 0.205870 0.237922
vt 0.258065 0.200000
vt 0.310259 0.237922
vn 0.006153 0.999940 0.009016
vn 0.440250 0.894792 -0.074352
vn -0.184953 0.944633 -0.271037
vn 0.563293 0.763412 -0.316076
vn 0.277190 0.697368 -0.660941
vn -0.036795 0.754965 -0.654732
vn -0.229738 0.894791 0.382843
vn -0.596255 0.754965 -0.272960
vn -0.720862 0.692314 0.032536
vn -0.499684 0.763411 0.409292
vn 0.244706 0.753567 0.610128
vn 0.469439 0.805360 0.361970
vn 0.727832 0.551876 0.407055
vn 0.939631 0.334820 0.070636
vn 0.862627 0.447258 -0.236297
vn -0.294825 0.448885 -0.843552
vn -0.692241 0.509216 -0.511372
vn -0.522922 0.442778 0.728354
vn -0.276790 0.334825 0.900711
vn 0.017932 0.542353 0.839959
vn 0.740393 0.158786 -0.653150
vn 0.472184 0.321158 -0.820914
vn 0.455377 0.200487 0.867431
vn 0.697780 0.198161 0.688357
vn -0.775486 0.162634 -0.610059
vn -0.970289 0.159983 -0.181509
vn -0.948516 0.251361 0.192706
vn 0.258109 0.103336 -0.960573
vn -0.180810 0.159629 -0.970478
vn -0.832643 0.184496 0.522176
vn 0.996988 -0.016070 0.075877
vn 0.931677 -0.361032 -0.040411
vn 0.880713 -0.139489 -0.452644
vn 0.822916 -0.196939 0.532940
vn -0.439303 -0.200041 -0.875783
vn -0.729673 -0.196196 -0.655045
vn -0.258109 -0.103336 0.960574
vn 0.163304 -0.117884 0.979508
vn -0.804039 -0.128088 0.580617
vn -0.472184 -0.321158 0.820914
vn 0.510218 -0.437797 -0.740278
vn 0.238394 -0.316165 -0.918264
vn 0.294825 -0.448885 0.843552
vn 0.652564 -0.481638 0.584965
vn -0.737547 -0.538230 -0.407840
vn -0.962994 -0.269270 0.011637
vn -0.828672 -0.526009 0.191357
vn -0.016890 -0.560275 -0.828135
vn 0.669731 -0.736083 -0.098189
vn 0.537447 -0.736879 -0.410073
vn 0.665511 -0.689901 0.284836
vn -0.244706 -0.753567 -0.610128
vn -0.506204 -0.778781 -0.370484
vn -0.293104 -0.692315 0.659386
vn 0.082451 -0.756959 0.648240
vn -0.577788 -0.736879 0.350956
vn 0.196772 -0.904871 -0.377477
vn 0.175275 -0.950423 0.256854
vn -0.431478 -0.900163 0.059433
vn 0.007703 -0.999907 0.011289
s 1
g pSolid1
usemtl initialShadingGroup
f 1/17/1 2/18/2 3/16/3
f 5/13/4 12/14/5 2/18/2
f 2/18/2 12/14/5 3/16/3
f 12/14/5 8/15/6 3/16/3
f 1/17/1 3/16/3 4/42/7
f 7/39/8 15/40/9 3/16/3
f 3/16/3 15/40/9 4/42/7
f 15/40/9 10/41/10 4/42/7
f 4/42/7 9/43/11 1/106/1
f 9/43/11 6/104/12 1/106/1
f 6/104/12 2/105/2 1/106/1
f 6/10/12 13/11/13 2/9/2
f 20/12/14 11/7/15 13/11/13
f 5/8/4 2/9/2 11/7/15
f 13/11/13 11/7/15 2/9/2
f 8/108/6 16/109/16 3/107/3
f 16/109/16 14/38/17 3/107/3
f 14/38/17 7/39/8 3/107/3
f 10/41/10 18/53/18 4/42/7
f 27/54/19 17/44/20 18/53/18
f 18/53/18 17/44/20 4/42/7
f 17/44/20 9/43/11 4/42/7
f 5/7/4 11/116/15 12/8/5
f 11/116/15 19/117/21 12/8/5
f 19/117/21 21/118/22 12/8/5
f 6/10/12 9/43/11 13/11/13
f 17/44/20 26/45/23 9/43/11
f 22/46/24 13/11/13 26/45/23
f 9/43/11 26/45/23 13/11/13
f 7/39/8 14/38/17 15/40/9
f 23/37/25 34/55/26 14/38/17
f 14/38/17 34/55/26 15/40/9
f 34/55/26 24/56/27 15/40/9
f 8/24/6 12/19/5 16/23/16
f 21/20/22 31/21/28 12/19/5
f 25/22/29 16/23/16 31/21/28
f 12/19/5 31/21/28 16/23/16
f 10/41/10 15/40/9 18/91/18
f 15/40/9 24/89/27 18/91/18
f 24/89/27 28/90/30 18/91/18
f 20/3/14 30/4/31 11/2/15
f 40/5/32 29/6/33 30/4/31
f 19/1/21 11/2/15 29/6/33
f 30/4/31 29/6/33 11/2/15
f 22/46/24 32/47/34 13/103/13
f 32/47/34 30/101/31 13/103/13
f 30/101/31 20/102/14 13/103/13
f 14/38/17 16/23/16 23/37/25
f 25/22/29 35/35/35 16/23/16
f 16/23/16 35/35/35 23/37/25
f 35/35/35 33/36/36 23/37/25
f 27/86/19 37/87/37 17/44/20
f 37/87/37 36/88/38 17/44/20
f 36/88/38 26/45/23 17/44/20
f 28/75/30 38/76/39 18/53/18
f 47/77/40 37/78/37 38/76/39
f 27/54/19 18/53/18 37/78/37
f 38/76/39 37/78/37 18/53/18
f 29/27/33 39/28/41 19/26/21
f 41/29/42 31/30/28 39/28/41
f 39/28/41 31/30/28 19/26/21
f 31/30/28 21/25/22 19/26/21
f 22/46/24 26/45/23 32/47/34
f 36/51/38 46/52/43 26/45/23
f 42/48/44 32/47/34 46/52/43
f 26/45/23 46/52/43 32/47/34
f 23/37/25 33/36/36 34/94/26
f 33/36/36 43/92/45 34/94/26
f 43/92/45 44/93/46 34/94/26
f 34/55/26 44/71/46 24/56/27
f 48/72/47 38/73/39 44/71/46
f 44/71/46 38/73/39 24/56/27
f 38/73/39 28/74/30 24/56/27
f 25/110/29 31/111/28 35/35/35
f 31/111/28 41/112/42 35/35/35
f 41/112/42 45/34/48 35/35/35
f 40/115/32 50/59/49 29/114/33
f 50/59/49 49/31/50 29/114/33
f 49/31/50 39/113/41 29/114/33
f 30/4/31 32/47/34 40/5/32
f 42/48/44 51/49/51 32/47/34
f 32/47/34 51/49/51 40/5/32
f 51/49/51 50/50/49 40/5/32
f 33/36/36 35/35/35 43/58/45
f 45/34/48 53/33/52 35/35/35
f 52/57/53 43/58/45 53/33/52
f 35/35/35 53/33/52 43/58/45
f 36/51/38 37/79/37 46/52/43
f 47/80/40 55/81/54 37/79/37
f 54/82/55 46/52/43 55/81/54
f 37/79/37 55/81/54 46/52/43
f 48/99/47 56/100/56 38/98/39
f 56/100/56 55/81/54 38/98/39
f 55/81/54 47/80/40 38/98/39
f 49/31/50 57/32/57 39/28/41
f 53/33/52 45/34/48 57/32/57
f 57/32/57 45/34/48 39/28/41
f 45/34/48 41/29/42 39/28/41
f 42/48/44 46/83/43 51/49/51
f 46/83/43 54/84/55 51/49/51
f 54/84/55 58/85/58 51/49/51
f 52/57/53 59/67/59 43/58/45
f 56/68/56 48/69/47 59/67/59
f 44/70/46 43/58/45 48/69/47
f 59/67/59 48/69/47 43/58/45
f 49/31/50 50/59/49 57/32/57
f 51/60/51 58/61/58 50/59/49
f 50/59/49 58/61/58 57/32/57
f 58/61/58 60/62/60 57/32/57
f 52/97/53 53/33/52 59/96/59
f 53/33/52 57/32/57 59/96/59
f 57/32/57 60/95/60 59/96/59
f 54/63/55 55/64/54 58/61/58
f 56/65/56 59/66/59 55/64/54
f 55/64/54 59/66/59 58/61/58
f 59/66/59 60/62/60 58/61/58
